<svg width="100" height="100" viewBox="0 0 100 100" fill="none" xmlns="http://www.w3.org/2000/svg">
<path fill-rule="evenodd" clip-rule="evenodd" d="M39.1604 2.50594C36.2854 3.93894 32.7284 6.74894 31.2504 8.75594C29.7724 10.7619 24.9014 16.2559 20.4254 20.9659C5.00937 37.1849 0.0223725 53.3449 0.000372489 87.1529C-0.00762751 99.2389 0.0963725 99.9029 1.99237 99.9029C3.79437 99.9029 3.99337 99.2329 4.00137 93.1529C4.01837 80.0479 5.98537 59.2509 7.92537 51.6669C9.00537 47.4439 11.1174 41.4789 12.6204 38.4099C15.5634 32.4009 25.8724 20.4119 25.9474 22.9119C25.9724 23.7429 25.1034 24.9769 24.0164 25.6559C22.9294 26.3349 20.6834 29.2549 19.0254 32.1469C15.4024 38.4649 15.0924 44.2009 17.8404 54.1109C18.9154 57.9889 19.3404 61.3259 18.8554 62.0899C16.9334 65.1219 17.9414 70.0529 21.0834 72.9879C22.7834 74.5759 25.2594 78.0529 26.5864 80.7149C31.1154 89.8039 43.4764 99.9029 50.0734 99.9029C56.2694 99.9029 69.1144 89.3119 73.4364 80.6389C74.7424 78.0189 77.2014 74.5759 78.9014 72.9879C82.0434 70.0529 83.0514 65.1219 81.1294 62.0899C80.6444 61.3259 81.0694 57.9889 82.1444 54.1109C84.8814 44.2419 84.5794 38.4589 81.0034 32.2239C79.3694 29.3749 77.0744 26.3729 75.9034 25.5529C74.7314 24.7319 73.9544 23.5179 74.1754 22.8539C74.8044 20.9669 83.8484 31.6749 87.1524 38.2199C88.7894 41.4629 91.0054 47.5419 92.0764 51.7299C94.0024 59.2609 95.9664 80.0869 95.9834 93.1529C95.9914 99.2329 96.1904 99.9029 97.9924 99.9029C99.8884 99.9029 99.9924 99.2389 99.9844 87.1529C99.9624 53.3449 94.9754 37.1849 79.5594 20.9659C75.0834 16.2559 70.2124 10.7619 68.7344 8.75594C62.4764 0.260936 49.2684 -2.53006 39.1604 2.50594ZM54.0554 9.96594C55.1894 11.0999 56.6514 11.8359 57.3054 11.6009C59.0384 10.9769 61.9924 12.7429 61.9924 14.4029C61.9924 15.1889 62.9314 16.3349 64.0784 16.9489C67.4394 18.7479 65.7784 18.9439 60.5364 17.3659C54.2994 15.4889 45.6394 15.4999 39.4014 17.3919C33.2584 19.2559 33.3114 19.2589 35.2714 17.1529C36.1664 16.1899 37.8104 14.4009 38.9234 13.1759C40.0364 11.9509 41.5974 11.1979 42.3924 11.5029C43.1874 11.8079 44.7724 11.1229 45.9154 9.97994C48.5534 7.34194 51.4264 7.33694 54.0554 9.96594ZM64.4254 46.4389C72.7174 53.0879 73.9924 54.6429 73.9924 58.1039C73.9924 60.2209 74.7304 62.0899 75.9924 63.1709C77.0924 64.1129 77.9924 65.5309 77.9924 66.3219C77.9924 67.9379 75.3494 70.9029 73.9084 70.9029C73.3904 70.9029 71.8784 73.3639 70.5484 76.3729C67.5484 83.1559 60.2204 91.1299 54.3944 93.9499L49.9924 96.0809L45.5264 93.9189C39.5684 91.0349 31.4764 82.0329 29.2784 75.8449C28.3124 73.1269 26.9854 70.9029 26.3294 70.9029C24.6794 70.9029 21.9924 68.0649 21.9924 66.3219C21.9924 65.5309 22.8924 64.1129 23.9924 63.1709C25.3334 62.0229 25.9924 60.2209 25.9924 57.7039C25.9924 53.0019 27.7974 51.7299 38.2204 49.0819C47.7814 46.6529 54.3834 42.9019 56.1544 38.8939L57.4924 35.8659L59.1104 39.6709C60.0004 41.7639 62.3924 44.8099 64.4254 46.4389Z" fill="black"/>
</svg>
