<svg width="50" height="50" viewBox="0 0 50 50" fill="none" xmlns="http://www.w3.org/2000/svg">
<path d="M10.4167 22.9167H27.0833V27.0834H10.4167V33.3334L0 25.0001L10.4167 16.6667V22.9167ZM8.33181 37.5001H13.9757C16.9138 40.0932 20.7731 41.6667 25 41.6667C34.2048 41.6667 41.6667 34.2049 41.6667 25.0001C41.6667 15.7953 34.2048 8.33341 25 8.33341C20.7731 8.33341 16.9138 9.90689 13.9757 12.5001H8.33181C12.1327 7.43989 18.1841 4.16675 25 4.16675C36.5058 4.16675 45.8333 13.4941 45.8333 25.0001C45.8333 36.5059 36.5058 45.8334 25 45.8334C18.1841 45.8334 12.1327 42.5603 8.33181 37.5001Z" fill="#1B1B1B"/>
</svg>
