<svg width="50" height="50" viewBox="0 0 50 50" fill="none" xmlns="http://www.w3.org/2000/svg">
<path d="M24.9999 29.1666V33.3333C18.0964 33.3333 12.4999 38.9297 12.4999 45.8333H8.33325C8.33325 36.6285 15.7952 29.1666 24.9999 29.1666ZM24.9999 27.0833C18.0937 27.0833 12.4999 21.4895 12.4999 14.5833C12.4999 7.677 18.0937 2.08325 24.9999 2.08325C31.9062 2.08325 37.4999 7.677 37.4999 14.5833C37.4999 21.4895 31.9062 27.0833 24.9999 27.0833ZM24.9999 22.9166C29.6041 22.9166 33.3333 19.1874 33.3333 14.5833C33.3333 9.97909 29.6041 6.24992 24.9999 6.24992C20.3958 6.24992 16.6666 9.97909 16.6666 14.5833C16.6666 19.1874 20.3958 22.9166 24.9999 22.9166ZM30.4053 39.1905C30.2764 38.648 30.2083 38.082 30.2083 37.4999C30.2083 36.918 30.2764 36.352 30.4051 35.8095L28.3393 34.6168L30.4226 31.0083L32.4899 32.2018C33.3089 31.4272 34.3074 30.8403 35.4166 30.5101V28.1249H39.5833V30.5101C40.6924 30.8403 41.6908 31.4272 42.5097 32.2018L44.5772 31.008L46.6608 34.6166L44.5947 35.8093C44.7235 36.352 44.7916 36.918 44.7916 37.4999C44.7916 38.0818 44.7235 38.6478 44.5947 39.1903L46.6608 40.383L44.5774 43.9916L42.5099 42.7978C41.691 43.5726 40.6926 44.1595 39.5835 44.4895V46.8749H35.4168V44.4897C34.3076 44.1597 33.3091 43.5728 32.4901 42.798L30.4228 43.9918L28.3393 40.3833L30.4053 39.1905ZM37.4999 40.6249C39.2257 40.6249 40.6249 39.2258 40.6249 37.4999C40.6249 35.7741 39.2257 34.3749 37.4999 34.3749C35.7741 34.3749 34.3749 35.7741 34.3749 37.4999C34.3749 39.2258 35.7741 40.6249 37.4999 40.6249Z" fill="#1B1B1B"/>
</svg>
