<svg width="100" height="100" viewBox="0 0 100 100" fill="none" xmlns="http://www.w3.org/2000/svg">
<path fill-rule="evenodd" clip-rule="evenodd" d="M37.487 0.969697C29.315 2.8937 22.318 8.1847 18.433 15.3777C16.481 18.9917 16.26 21.0107 16.137 36.2897L16 53.2017L18.715 55.7897C20.209 57.2127 22.713 60.6207 24.28 63.3627C28.191 70.2057 35.123 77.3867 40.182 79.8357C45.755 82.5337 53.783 82.5337 59.356 79.8357C64.415 77.3867 71.347 70.2057 75.258 63.3627C76.825 60.6207 79.297 57.2427 80.75 55.8557C83.386 53.3407 83.394 53.2867 83.576 36.5607C83.78 17.8247 83.076 14.6567 77.892 10.9647C76.185 9.7497 73.163 8.4917 71.177 8.1687C69.19 7.8467 66.482 6.4997 65.158 5.1757C63.833 3.8507 61.194 2.1177 59.292 1.3227C55.472 -0.273303 43.582 -0.466303 37.487 0.969697ZM65.769 21.8747C65.769 22.9737 67.456 25.7397 69.518 28.0217C73.086 31.9707 73.285 32.5567 73.628 40.1207C73.984 47.9587 74.024 48.0617 76.458 47.5967C80.049 46.9107 80.717 49.6907 77.585 52.2877C76.199 53.4367 73.776 56.7867 72.201 59.7317C61.968 78.8667 47.445 83.1137 35.269 70.5317C32.519 67.6897 28.965 62.8927 27.371 59.8707C25.777 56.8497 23.339 53.4367 21.953 52.2877C18.767 49.6457 19.492 46.9107 23.19 47.6177C25.736 48.1047 25.769 48.0317 25.769 41.9617C25.769 38.5807 26.409 34.2827 27.19 32.4117C29.324 27.3067 33.208 25.8297 47.06 24.8577C56.761 24.1767 59.616 23.6187 61.691 21.9997C64.985 19.4297 65.769 19.4057 65.769 21.8747ZM30.239 82.1397C29.927 83.3837 29.806 87.7657 29.97 91.8787C30.314 100.491 31.297 101.297 37.854 98.3397C41.062 96.8927 41.536 96.3107 40.732 94.8087C39.506 92.5177 39.513 86.8307 40.745 84.8827C41.467 83.7397 40.935 82.9847 38.479 81.6747C33.888 79.2247 30.929 79.3917 30.239 82.1397ZM61.059 81.6747C58.603 82.9847 58.071 83.7397 58.793 84.8827C60.025 86.8307 60.032 92.5177 58.806 94.8087C58.002 96.3107 58.476 96.8927 61.684 98.3397C68.241 101.297 69.224 100.491 69.568 91.8787C69.732 87.7657 69.611 83.3837 69.299 82.1397C68.609 79.3917 65.65 79.2247 61.059 81.6747ZM43.769 89.8777V93.8777H49.769H55.769V89.8777V85.8777H49.769H43.769V89.8777Z" fill="black"/>
</svg>
